<mxfile host="app.diagrams.net" modified="2023-06-20T15:14:32.591Z" agent="Mozilla/5.0 (Windows NT 10.0; Win64; x64) AppleWebKit/537.36 (KHTML, like Gecko) Chrome/114.0.0.0 Safari/537.36" version="21.2.1" etag="jRR7JbDe2AxXFYphLsNj" type="github">
  <diagram name="Page-1" id="4RfNlhVwg2Z5ryqVWNqj">
    <mxGraphModel>
      <root>
        <mxCell id="0" />
        <mxCell id="1" parent="0" />
      </root>
    </mxGraphModel>
  </diagram>
</mxfile>
